<mxfile host="app.diagrams.net" modified="2024-04-19T04:16:09.568Z" agent="Mozilla/5.0 (X11; Linux x86_64; rv:124.0) Gecko/20100101 Firefox/124.0" etag="Q0DAgNw06Aldp6cNsBBp" version="24.2.5" type="device">
  <diagram name="Page-1" id="d_ET9RozHncnrLZjQDqu">
    <mxGraphModel dx="1434" dy="797" grid="1" gridSize="10" guides="1" tooltips="1" connect="1" arrows="1" fold="1" page="1" pageScale="1" pageWidth="850" pageHeight="1100" math="0" shadow="0">
      <root>
        <mxCell id="0" />
        <mxCell id="1" parent="0" />
        <mxCell id="q6fRjR8Mlr93rlHcB15c-1" value="" style="ellipse;whiteSpace=wrap;html=1;aspect=fixed;" parent="1" vertex="1">
          <mxGeometry x="316.025641025641" width="80.21466905187835" height="80.21466905187835" as="geometry" />
        </mxCell>
        <mxCell id="q6fRjR8Mlr93rlHcB15c-2" value="" style="endArrow=classic;html=1;rounded=0;exitX=0.5;exitY=1;exitDx=0;exitDy=0;" parent="1" source="q6fRjR8Mlr93rlHcB15c-1" edge="1">
          <mxGeometry width="50" height="50" relative="1" as="geometry">
            <mxPoint x="261.53846153846155" y="352.3636363636363" as="sourcePoint" />
            <mxPoint x="359.6153846153846" y="124.36363636363637" as="targetPoint" />
          </mxGeometry>
        </mxCell>
        <mxCell id="q6fRjR8Mlr93rlHcB15c-5" style="edgeStyle=orthogonalEdgeStyle;rounded=0;orthogonalLoop=1;jettySize=auto;html=1;entryX=0.5;entryY=0;entryDx=0;entryDy=0;" parent="1" source="q6fRjR8Mlr93rlHcB15c-3" target="q6fRjR8Mlr93rlHcB15c-4" edge="1">
          <mxGeometry relative="1" as="geometry" />
        </mxCell>
        <mxCell id="q6fRjR8Mlr93rlHcB15c-8" style="edgeStyle=orthogonalEdgeStyle;rounded=0;orthogonalLoop=1;jettySize=auto;html=1;entryX=0.5;entryY=0;entryDx=0;entryDy=0;" parent="1" source="q6fRjR8Mlr93rlHcB15c-3" edge="1">
          <mxGeometry relative="1" as="geometry">
            <mxPoint x="359.6153846153846" y="227.99999999999997" as="targetPoint" />
          </mxGeometry>
        </mxCell>
        <mxCell id="q6fRjR8Mlr93rlHcB15c-3" value="&lt;font style=&quot;font-size: 24px;&quot;&gt;HOME&lt;/font&gt;" style="rounded=1;whiteSpace=wrap;html=1;absoluteArcSize=1;arcSize=14;strokeWidth=2;" parent="1" vertex="1">
          <mxGeometry x="283.3333333333333" y="124.36363636363637" width="152.56410256410257" height="62.18181818181819" as="geometry" />
        </mxCell>
        <mxCell id="q6fRjR8Mlr93rlHcB15c-4" value="Discover" style="rounded=1;whiteSpace=wrap;html=1;absoluteArcSize=1;arcSize=14;strokeWidth=2;fontSize=24;" parent="1" vertex="1">
          <mxGeometry x="21.794871794871792" y="227.99999999999997" width="152.56410256410257" height="62.18181818181819" as="geometry" />
        </mxCell>
        <mxCell id="q6fRjR8Mlr93rlHcB15c-25" style="edgeStyle=orthogonalEdgeStyle;rounded=0;orthogonalLoop=1;jettySize=auto;html=1;exitX=0.25;exitY=1;exitDx=0;exitDy=0;" parent="1" edge="1">
          <mxGeometry relative="1" as="geometry">
            <mxPoint x="329.9966666666667" y="500" as="targetPoint" />
            <mxPoint x="330.2210256410254" y="290.18181818181824" as="sourcePoint" />
          </mxGeometry>
        </mxCell>
        <mxCell id="q6fRjR8Mlr93rlHcB15c-9" value="User&#39;s Profile" style="rounded=1;whiteSpace=wrap;html=1;absoluteArcSize=1;arcSize=14;strokeWidth=2;fontSize=24;" parent="1" vertex="1">
          <mxGeometry x="268.07692307692304" y="227.99999999999997" width="185.25641025641025" height="62.18181818181819" as="geometry" />
        </mxCell>
        <mxCell id="q6fRjR8Mlr93rlHcB15c-15" style="edgeStyle=orthogonalEdgeStyle;rounded=0;orthogonalLoop=1;jettySize=auto;html=1;exitX=0.5;exitY=1;exitDx=0;exitDy=0;exitPerimeter=0;entryX=0.5;entryY=0;entryDx=0;entryDy=0;" parent="1" source="q6fRjR8Mlr93rlHcB15c-11" target="q6fRjR8Mlr93rlHcB15c-14" edge="1">
          <mxGeometry relative="1" as="geometry" />
        </mxCell>
        <mxCell id="q6fRjR8Mlr93rlHcB15c-17" style="edgeStyle=orthogonalEdgeStyle;rounded=0;orthogonalLoop=1;jettySize=auto;html=1;entryX=0.5;entryY=0;entryDx=0;entryDy=0;" parent="1" target="q6fRjR8Mlr93rlHcB15c-13" edge="1">
          <mxGeometry relative="1" as="geometry">
            <mxPoint x="666.4166666666667" y="321.26999999999987" as="sourcePoint" />
            <mxPoint x="434.28487179487183" y="374.090909090909" as="targetPoint" />
            <Array as="points">
              <mxPoint x="666" y="350" />
              <mxPoint x="438" y="350" />
              <mxPoint x="438" y="373" />
              <mxPoint x="436" y="373" />
            </Array>
          </mxGeometry>
        </mxCell>
        <mxCell id="q6fRjR8Mlr93rlHcB15c-21" style="edgeStyle=orthogonalEdgeStyle;rounded=0;orthogonalLoop=1;jettySize=auto;html=1;exitX=0.5;exitY=1;exitDx=0;exitDy=0;exitPerimeter=0;entryX=0.5;entryY=0;entryDx=0;entryDy=0;" parent="1" source="q6fRjR8Mlr93rlHcB15c-11" target="q6fRjR8Mlr93rlHcB15c-32" edge="1">
          <mxGeometry relative="1" as="geometry">
            <mxPoint x="65" y="357.5454545454545" as="targetPoint" />
            <Array as="points">
              <mxPoint x="669" y="350" />
              <mxPoint x="65" y="350" />
              <mxPoint x="65" y="373" />
              <mxPoint x="66" y="373" />
            </Array>
          </mxGeometry>
        </mxCell>
        <mxCell id="q6fRjR8Mlr93rlHcB15c-28" style="edgeStyle=orthogonalEdgeStyle;rounded=0;orthogonalLoop=1;jettySize=auto;html=1;exitX=1;exitY=0.5;exitDx=0;exitDy=0;exitPerimeter=0;entryX=0;entryY=0.5;entryDx=0;entryDy=0;entryPerimeter=0;" parent="1" source="q6fRjR8Mlr93rlHcB15c-11" target="q6fRjR8Mlr93rlHcB15c-29" edge="1">
          <mxGeometry relative="1" as="geometry">
            <mxPoint x="850" y="181.09000000000003" as="targetPoint" />
            <Array as="points">
              <mxPoint x="810" y="259" />
              <mxPoint x="810" y="159" />
            </Array>
          </mxGeometry>
        </mxCell>
        <mxCell id="q6fRjR8Mlr93rlHcB15c-34" style="edgeStyle=orthogonalEdgeStyle;rounded=0;orthogonalLoop=1;jettySize=auto;html=1;exitX=0.5;exitY=1;exitDx=0;exitDy=0;exitPerimeter=0;entryX=0.5;entryY=0;entryDx=0;entryDy=0;" parent="1" source="q6fRjR8Mlr93rlHcB15c-11" target="q6fRjR8Mlr93rlHcB15c-33" edge="1">
          <mxGeometry relative="1" as="geometry">
            <Array as="points">
              <mxPoint x="669" y="350" />
              <mxPoint x="238" y="350" />
            </Array>
          </mxGeometry>
        </mxCell>
        <mxCell id="q6fRjR8Mlr93rlHcB15c-11" value="Login" style="strokeWidth=2;html=1;shape=mxgraph.flowchart.decision;whiteSpace=wrap;fontSize=24;" parent="1" vertex="1">
          <mxGeometry x="540" y="196.91" width="256.92" height="124.36" as="geometry" />
        </mxCell>
        <mxCell id="q6fRjR8Mlr93rlHcB15c-12" style="edgeStyle=orthogonalEdgeStyle;rounded=0;orthogonalLoop=1;jettySize=auto;html=1;exitX=1;exitY=0.5;exitDx=0;exitDy=0;entryX=0.5;entryY=0;entryDx=0;entryDy=0;entryPerimeter=0;" parent="1" source="q6fRjR8Mlr93rlHcB15c-3" target="q6fRjR8Mlr93rlHcB15c-11" edge="1">
          <mxGeometry relative="1" as="geometry" />
        </mxCell>
        <mxCell id="q6fRjR8Mlr93rlHcB15c-13" value="Upload" style="rounded=1;whiteSpace=wrap;html=1;absoluteArcSize=1;arcSize=14;strokeWidth=2;fontSize=24;" parent="1" vertex="1">
          <mxGeometry x="360.0028205128205" y="374.0909090909091" width="152.56410256410257" height="62.18181818181819" as="geometry" />
        </mxCell>
        <mxCell id="q6fRjR8Mlr93rlHcB15c-38" style="edgeStyle=orthogonalEdgeStyle;rounded=0;orthogonalLoop=1;jettySize=auto;html=1;exitX=0;exitY=1;exitDx=0;exitDy=0;entryX=1;entryY=0.5;entryDx=0;entryDy=0;" parent="1" source="q6fRjR8Mlr93rlHcB15c-14" target="q6fRjR8Mlr93rlHcB15c-37" edge="1">
          <mxGeometry relative="1" as="geometry">
            <Array as="points">
              <mxPoint x="565" y="410" />
              <mxPoint x="540" y="410" />
              <mxPoint x="540" y="535" />
            </Array>
          </mxGeometry>
        </mxCell>
        <mxCell id="q6fRjR8Mlr93rlHcB15c-14" value="User&#39;s Gallery" style="rounded=1;whiteSpace=wrap;html=1;absoluteArcSize=1;arcSize=14;strokeWidth=2;fontSize=24;" parent="1" vertex="1">
          <mxGeometry x="564.9328205128204" y="373.0909090909091" width="207.05128205128202" height="62.18181818181819" as="geometry" />
        </mxCell>
        <mxCell id="q6fRjR8Mlr93rlHcB15c-23" style="edgeStyle=orthogonalEdgeStyle;rounded=0;orthogonalLoop=1;jettySize=auto;html=1;exitX=0.5;exitY=1;exitDx=0;exitDy=0;entryX=0.497;entryY=0.035;entryDx=0;entryDy=0;entryPerimeter=0;" parent="1" source="q6fRjR8Mlr93rlHcB15c-14" target="4y97Dp1yXTzsNSBIdy1M-1" edge="1">
          <mxGeometry relative="1" as="geometry">
            <mxPoint x="668" y="500" as="targetPoint" />
          </mxGeometry>
        </mxCell>
        <mxCell id="q6fRjR8Mlr93rlHcB15c-26" value="YES" style="text;html=1;align=center;verticalAlign=middle;resizable=0;points=[];autosize=1;strokeColor=none;fillColor=none;" parent="1" vertex="1">
          <mxGeometry x="670" y="310" width="50" height="30" as="geometry" />
        </mxCell>
        <mxCell id="q6fRjR8Mlr93rlHcB15c-36" style="edgeStyle=orthogonalEdgeStyle;rounded=0;orthogonalLoop=1;jettySize=auto;html=1;exitX=0.5;exitY=1;exitDx=0;exitDy=0;exitPerimeter=0;entryX=0.5;entryY=0;entryDx=0;entryDy=0;" parent="1" source="q6fRjR8Mlr93rlHcB15c-29" target="q6fRjR8Mlr93rlHcB15c-35" edge="1">
          <mxGeometry relative="1" as="geometry" />
        </mxCell>
        <mxCell id="q6fRjR8Mlr93rlHcB15c-29" value="Register" style="strokeWidth=2;html=1;shape=mxgraph.flowchart.decision;whiteSpace=wrap;fontSize=24;" parent="1" vertex="1">
          <mxGeometry x="820" y="108.44999999999999" width="140" height="100" as="geometry" />
        </mxCell>
        <mxCell id="q6fRjR8Mlr93rlHcB15c-31" value="NO" style="text;html=1;align=center;verticalAlign=middle;resizable=0;points=[];autosize=1;strokeColor=none;fillColor=none;" parent="1" vertex="1">
          <mxGeometry x="771.98" y="196.91" width="40" height="30" as="geometry" />
        </mxCell>
        <mxCell id="q6fRjR8Mlr93rlHcB15c-32" value="Like" style="rounded=1;whiteSpace=wrap;html=1;absoluteArcSize=1;arcSize=14;strokeWidth=2;fontSize=24;" parent="1" vertex="1">
          <mxGeometry x="2.57" y="378" width="127.43" height="62.18" as="geometry" />
        </mxCell>
        <mxCell id="q6fRjR8Mlr93rlHcB15c-33" value="Disike" style="rounded=1;whiteSpace=wrap;html=1;absoluteArcSize=1;arcSize=14;strokeWidth=2;fontSize=24;" parent="1" vertex="1">
          <mxGeometry x="174.35999999999999" y="375" width="127.43" height="62.18" as="geometry" />
        </mxCell>
        <mxCell id="q6fRjR8Mlr93rlHcB15c-39" style="edgeStyle=orthogonalEdgeStyle;rounded=0;orthogonalLoop=1;jettySize=auto;html=1;exitX=0.5;exitY=1;exitDx=0;exitDy=0;" parent="1" source="q6fRjR8Mlr93rlHcB15c-35" edge="1">
          <mxGeometry relative="1" as="geometry">
            <mxPoint x="670" y="350" as="targetPoint" />
            <Array as="points">
              <mxPoint x="890" y="350" />
            </Array>
          </mxGeometry>
        </mxCell>
        <mxCell id="q6fRjR8Mlr93rlHcB15c-35" value="Login" style="rounded=1;whiteSpace=wrap;html=1;absoluteArcSize=1;arcSize=14;strokeWidth=2;fontSize=24;" parent="1" vertex="1">
          <mxGeometry x="825" y="270" width="130" height="62.18" as="geometry" />
        </mxCell>
        <mxCell id="q6fRjR8Mlr93rlHcB15c-37" value="Copy Profile Link" style="rounded=1;whiteSpace=wrap;html=1;absoluteArcSize=1;arcSize=14;strokeWidth=2;fontSize=24;" parent="1" vertex="1">
          <mxGeometry x="228.39" y="500" width="205.51" height="70" as="geometry" />
        </mxCell>
        <mxCell id="4y97Dp1yXTzsNSBIdy1M-1" value="Delete" style="rounded=1;whiteSpace=wrap;html=1;absoluteArcSize=1;arcSize=14;strokeWidth=2;fontSize=24;" vertex="1" parent="1">
          <mxGeometry x="592.1728205128205" y="507.8209090909091" width="152.56410256410257" height="62.18181818181819" as="geometry" />
        </mxCell>
      </root>
    </mxGraphModel>
  </diagram>
</mxfile>
